<svg xmlns="http://www.w3.org/2000/svg" width="2130" height="1200" viewBox="0 0 2130 1200" fill="none">
    <path d="M1660.25 819.277L1682.84 751.506C1682.84 751.506 1752.87 779.744 1827.42 779.744C1883.89 779.744 1906.48 760.542 1906.48 730.045C1906.48 689.382 1865.82 683.735 1802.57 660.015C1717.86 628.389 1667.03 599.021 1667.03 509.789C1667.03 436.371 1703.17 369.729 1833.07 369.729C1934.72 369.729 1993.46 409.263 1993.46 409.263L1970.87 480.422C1970.87 480.422 1907.61 456.702 1846.62 456.702C1795.79 456.702 1777.72 473.645 1777.72 503.012C1777.72 544.804 1816.12 552.711 1874.86 573.042C1965.22 603.539 2016.05 637.425 2016.05 722.138C2016.05 806.852 1969.74 867.846 1834.2 867.846C1717.86 867.846 1660.25 819.277 1660.25 819.277Z" fill="white"/>
    <path d="M1261.54 819.277L1285.26 751.506C1285.26 751.506 1355.29 779.744 1428.71 779.744C1486.31 779.744 1507.77 760.542 1507.77 730.045C1507.77 689.382 1468.24 683.735 1403.86 660.015C1320.27 628.389 1269.44 599.021 1269.44 509.789C1269.44 436.371 1304.46 369.729 1435.48 369.729C1537.14 369.729 1595.87 409.263 1595.87 409.263L1573.28 480.422C1573.28 480.422 1508.9 456.702 1449.04 456.702C1398.21 456.702 1380.14 473.645 1380.14 503.012C1380.14 544.804 1417.41 552.711 1476.14 573.042C1567.64 603.539 1617.33 637.425 1617.33 722.138C1617.33 806.852 1571.02 867.846 1436.61 867.846C1320.27 867.846 1261.54 819.277 1261.54 819.277Z" fill="white"/>
    <path d="M1246.85 378.765L1085.33 858.81C1032.24 1014.68 981.413 1076.81 884.275 1076.81C814.245 1076.81 780.359 1045.18 780.359 1045.18L800.691 979.668C800.691 979.668 827.799 989.833 860.555 989.833C903.477 989.833 930.585 969.502 963.341 870.105L781.489 378.765H905.736L1022.08 746.987L1123.73 378.765H1246.85Z" fill="white"/>
    <path d="M604.156 760.541V173.193H722.755V754.893C722.755 774.095 730.662 783.131 750.993 783.131H781.49L788.267 837.348C783.749 841.866 758.9 863.327 700.165 863.327C630.135 863.327 604.156 827.182 604.156 760.541Z" fill="white"/>
    <path d="M232.541 403.615V173.193H113.941V827.183C113.941 827.183 181.712 866.716 290.146 866.716C452.796 866.716 535.251 775.225 535.251 608.057C535.251 409.262 413.263 313.253 232.541 403.615ZM300.312 784.261C272.074 784.261 246.095 776.355 232.541 770.707V474.774C246.095 467.997 275.462 453.313 308.218 453.313C366.953 453.313 406.486 498.494 406.486 618.223C406.486 737.951 369.212 784.261 300.312 784.261Z" fill="white"/>
</svg>